<svg id="Camada_1" data-name="Camada 1" xmlns="http://www.w3.org/2000/svg" viewBox="0 0 200 65.33"><defs><style>.cls-1{fill:#f9c236;}.cls-2{fill:#042f70;}</style></defs><title>bt_yellow_big_200px</title><path class="cls-1" d="M193.08,33.17c0-15-1.89-25.52-15.53-25.52L19.35,14.9c-13.64,0-16.1,6.58-16.1,21.59S16.76,57.7,30.41,57.7l148.75,4.63C192.8,62.33,193,47.79,193,32.77Z"/><path class="cls-2" d="M179.16,64.33h-.05L30.36,59.7C17,59.7,1.25,53.63,1.25,36.49,1.25,20.85,4,12.9,19.35,12.9L177.47,5.64c16.26,0,17.61,13.59,17.61,27.52a2,2,0,0,1-.09.6C195,48.31,194.64,64.33,179.16,64.33ZM177.55,9.64,19.43,16.9c-11.28,0-14.18,4-14.18,19.59,0,9.29,6.61,19.21,25.16,19.21l148.77,4.63c11,0,11.81-10.92,11.81-27.56a2,2,0,0,1,.09-.59C191,17.23,188.75,9.64,177.55,9.64Z"/><path class="cls-2" d="M180.7,62.83h0L34.77,55.05C18,55.05,8,46.5,8,32.18,8,17,9.44,11.24,24.62,11.24L182.22.83c14.57,0,16.53,16.11,16.53,31.87C198.75,53,192.85,62.83,180.7,62.83Zm1.55-61L24.65,12.24C10.22,12.24,9,17.11,9,32.18c0,13.69,9.64,21.87,25.78,21.87l145.92,7.78c11.63,0,17-9.26,17-29.13C197.75,5.5,189.92,1.83,182.25,1.83Z"/></svg>