<?xml version="1.0" encoding="utf-8"?>
<!-- Generator: Adobe Illustrator 21.1.0, SVG Export Plug-In . SVG Version: 6.00 Build 0)  -->
<svg version="1.1" id="Layer_1" xmlns="http://www.w3.org/2000/svg" xmlns:xlink="http://www.w3.org/1999/xlink" x="0px" y="0px"
	 viewBox="0 0 52.3 39.8" style="enable-background:new 0 0 52.3 39.8;" xml:space="preserve">
<style type="text/css">
	.st0{fill:#043173;}
	.st1{fill:#FFCE00;}
</style>
<g>
	<path class="st0" d="M44.9,0.4c-3.9,0-7.1,3.2-7.1,7.1c0,1.2,0.3,2.4,0.9,3.5L34,19l-2.8-6.7c1.3-1.3,2-3.1,2-4.9
		c0-3.9-3.2-7.1-7.1-7.1s-7.1,3.2-7.1,7.1c0,1.9,0.8,3.7,2.1,5l-3.3,6.9l-4.5-8.1c0.8-1.1,1.1-2.5,1.1-3.9c0-3.9-3.2-7.1-7.1-7.1
		S0.3,3.5,0.3,7.4c0,3,1.6,5.1,4.9,6.7l3.3,25.3h34.6l3.7-25.3c3.3-1.2,5.1-3.7,5.1-6.7C51.9,3.5,48.8,0.4,44.9,0.4z"/>
	<path class="st1" d="M44.9,2.7c-2.4,0-4.3,1.9-4.3,4.3c0,1.4,0.6,2.5,1.6,3.3L33.3,25l-5.4-13.9c1.5-0.7,2.6-2.2,2.6-4
		c0-2.4-1.9-4.3-4.3-4.3s-4.3,1.9-4.3,4.3c0,1.9,1.2,3.5,2.9,4.1l-6.1,13.9L9.8,10.7c1.2-0.8,1.9-2.1,1.9-3.6c0-2.4-1.9-4.3-4.3-4.3
		S3,4.7,3,7.1s1.9,4.3,4.3,4.3c0.1,0,0.1,0,0.2,2.1L11,36.4h29.7c0,0,3.7-25,4-25c2.4,0,4.5-1.9,4.5-4.3S47.3,2.7,44.9,2.7z"/>
</g>
</svg>
